<svg width="24" height="24" viewBox="0 0 24 24" fill="none" xmlns="http://www.w3.org/2000/svg">
<path d="M17.7092 21.8564L17.7093 21.8563L17.7031 21.8529L12.8231 19.1429L12.8219 19.1422C12.5746 19.0058 12.2652 18.96 12.0053 18.96C11.7454 18.96 11.436 19.0058 11.1888 19.1422L11.1876 19.1429L6.30757 21.8529L6.30749 21.8529C5.42259 22.3445 4.60954 22.353 4.03675 22.0107L4.0326 22.0083C3.45909 21.6731 3.07031 20.9586 3.07031 19.95V5.86C3.07031 3.59614 4.91645 1.75 7.18031 1.75H16.8303C19.0942 1.75 20.9403 3.59614 20.9403 5.86V19.95C20.9403 20.9586 20.5515 21.6731 19.978 22.0083L19.978 22.0083L19.9731 22.0113C19.7084 22.17 19.399 22.25 19.0703 22.25C18.6567 22.25 18.1817 22.1276 17.7092 21.8564ZM13.0535 18.7049L13.0576 18.7071L17.9332 21.4146C17.9339 21.4151 17.9347 21.4155 17.9354 21.4159C18.495 21.7335 19.1811 21.9006 19.7176 21.5787C20.249 21.2599 20.4303 20.5945 20.4303 19.95V5.86C20.4303 3.87386 18.8065 2.25 16.8203 2.25H7.18031C5.19417 2.25 3.57031 3.87386 3.57031 5.86V19.95C3.57031 20.5845 3.74704 21.2752 4.29381 21.585C4.82148 21.884 5.48725 21.7382 6.06371 21.4168C6.06376 21.4167 6.0638 21.4167 6.06385 21.4167L10.9431 18.7071L10.9431 18.7071L10.9471 18.7048C11.2253 18.5469 11.5956 18.46 12.0003 18.46C12.4051 18.46 12.7753 18.5469 13.0535 18.7049Z" fill="#E0ECFE" stroke="#E0ECFE"/>
<path d="M17.7092 21.8564L17.7093 21.8563L17.7031 21.8529L12.8231 19.1429L12.8219 19.1422C12.5746 19.0058 12.2652 18.96 12.0053 18.96C11.7454 18.96 11.436 19.0058 11.1888 19.1422L11.1876 19.1429L6.30757 21.8529L6.30749 21.8529C5.42259 22.3445 4.60954 22.353 4.03675 22.0107L4.0326 22.0083C3.45909 21.6731 3.07031 20.9586 3.07031 19.95V5.86C3.07031 3.59614 4.91645 1.75 7.18031 1.75H16.8303C19.0942 1.75 20.9403 3.59614 20.9403 5.86V19.95C20.9403 20.9586 20.5515 21.6731 19.978 22.0083L19.978 22.0083L19.9731 22.0113C19.7084 22.17 19.399 22.25 19.0703 22.25C18.6567 22.25 18.1817 22.1276 17.7092 21.8564ZM13.0535 18.7049L13.0576 18.7071L17.9332 21.4146C17.9339 21.4151 17.9347 21.4155 17.9354 21.4159C18.495 21.7335 19.1811 21.9006 19.7176 21.5787C20.249 21.2599 20.4303 20.5945 20.4303 19.95V5.86C20.4303 3.87386 18.8065 2.25 16.8203 2.25H7.18031C5.19417 2.25 3.57031 3.87386 3.57031 5.86V19.95C3.57031 20.5845 3.74704 21.2752 4.29381 21.585C4.82148 21.884 5.48725 21.7382 6.06371 21.4168C6.06376 21.4167 6.0638 21.4167 6.06385 21.4167L10.9431 18.7071L10.9431 18.7071L10.9471 18.7048C11.2253 18.5469 11.5956 18.46 12.0003 18.46C12.4051 18.46 12.7753 18.5469 13.0535 18.7049Z" fill="#E0ECFE" stroke="#E0ECFE"/>
</svg>
