<svg width="24" height="24" viewBox="0 0 24 24" fill="none" xmlns="http://www.w3.org/2000/svg">
<path d="M18 18.86H17.24C16.44 18.86 15.68 19.17 15.12 19.73L13.41 21.42C12.63 22.19 11.36 22.19 10.58 21.42L8.87 19.73C8.31 19.17 7.54 18.86 6.75 18.86H6C4.34 18.86 3 17.53 3 15.89V4.97C3 3.33 4.34 2 6 2H18C19.66 2 21 3.33 21 4.97V15.88C21 17.52 19.66 18.86 18 18.86Z" stroke="#E0ECFE" stroke-width="1.5" stroke-miterlimit="10" stroke-linecap="round" stroke-linejoin="round"/>
<path d="M12.073 8.95C12.033 8.95 11.973 8.95 11.923 8.95C10.873 8.91 10.043 8.06 10.043 7C10.043 5.92 10.913 5.05 11.993 5.05C13.073 5.05 13.943 5.93 13.943 7C13.953 8.06 13.123 8.92 12.073 8.95Z" stroke="#E0ECFE" stroke-width="1.5" stroke-linecap="round" stroke-linejoin="round"/>
<path d="M9.25141 11.96C7.92141 12.85 7.92141 14.3 9.25141 15.19C10.7614 16.2 13.2414 16.2 14.7514 15.19C16.0814 14.3 16.0814 12.85 14.7514 11.96C13.2414 10.96 10.7714 10.96 9.25141 11.96Z" stroke="#E0ECFE" stroke-width="1.5" stroke-linecap="round" stroke-linejoin="round"/>
</svg>
