<svg width="45" height="45" viewBox="0 0 45 45" fill="none" xmlns="http://www.w3.org/2000/svg">
<circle cx="22.5" cy="22.9353" r="22" fill="#FD3C41"/>
<path d="M30.36 19.0254C30.36 19.4454 30.33 19.8554 30.28 20.2454C29.82 20.0454 29.32 19.9354 28.79 19.9354C27.57 19.9354 26.49 20.5254 25.82 21.4254C25.14 20.5254 24.06 19.9354 22.84 19.9354C20.79 19.9354 19.13 21.6054 19.13 23.6754C19.13 26.3554 20.55 28.4054 22.13 29.7954C22.08 29.8254 22.03 29.8354 21.98 29.8554C21.68 29.9654 21.18 29.9654 20.88 29.8554C18.29 28.9654 12.5 25.2854 12.5 19.0254C12.5 16.2654 14.72 14.0354 17.46 14.0354C19.09 14.0354 20.53 14.8154 21.43 16.0254C22.34 14.8154 23.78 14.0354 25.4 14.0354C28.14 14.0354 30.36 16.2654 30.36 19.0254Z" stroke="#F0F6FE" stroke-width="1.5" stroke-linecap="round" stroke-linejoin="round"/>
<path d="M32.4989 23.6753C32.4989 28.3553 28.1689 31.1153 26.2289 31.7753C25.9989 31.8553 25.6289 31.8553 25.3989 31.7753C24.5689 31.4953 23.2989 30.8253 22.1289 29.7953C20.5489 28.4053 19.1289 26.3553 19.1289 23.6753C19.1289 21.6053 20.7889 19.9353 22.8389 19.9353C24.0589 19.9353 25.1389 20.5253 25.8189 21.4253C26.4889 20.5253 27.5689 19.9353 28.7889 19.9353C29.3189 19.9353 29.8189 20.0453 30.2789 20.2453C31.5889 20.8253 32.4989 22.1353 32.4989 23.6753Z" stroke="#F0F6FE" stroke-width="1.5" stroke-linecap="round" stroke-linejoin="round"/>
</svg>
