<svg width="45" height="45" viewBox="0 0 45 45" fill="none" xmlns="http://www.w3.org/2000/svg">
<circle cx="22.5" cy="22.9353" r="22" fill="#C3630B"/>
<path d="M27.5 20.9353H29.5C31.5 20.9353 32.5 19.9353 32.5 17.9353V15.9353C32.5 13.9353 31.5 12.9353 29.5 12.9353H27.5C25.5 12.9353 24.5 13.9353 24.5 15.9353V17.9353C24.5 19.9353 25.5 20.9353 27.5 20.9353Z" stroke="#F0F6FE" stroke-width="1.5" stroke-miterlimit="10" stroke-linecap="round" stroke-linejoin="round"/>
<path d="M15.5 32.9353H17.5C19.5 32.9353 20.5 31.9353 20.5 29.9353V27.9353C20.5 25.9353 19.5 24.9353 17.5 24.9353H15.5C13.5 24.9353 12.5 25.9353 12.5 27.9353V29.9353C12.5 31.9353 13.5 32.9353 15.5 32.9353Z" stroke="#F0F6FE" stroke-width="1.5" stroke-miterlimit="10" stroke-linecap="round" stroke-linejoin="round"/>
<path d="M16.5 20.9353C18.7091 20.9353 20.5 19.1444 20.5 16.9353C20.5 14.7262 18.7091 12.9353 16.5 12.9353C14.2909 12.9353 12.5 14.7262 12.5 16.9353C12.5 19.1444 14.2909 20.9353 16.5 20.9353Z" stroke="#F0F6FE" stroke-width="1.5" stroke-miterlimit="10" stroke-linecap="round" stroke-linejoin="round"/>
<path d="M28.5 32.9353C30.7091 32.9353 32.5 31.1444 32.5 28.9353C32.5 26.7262 30.7091 24.9353 28.5 24.9353C26.2909 24.9353 24.5 26.7262 24.5 28.9353C24.5 31.1444 26.2909 32.9353 28.5 32.9353Z" stroke="#F0F6FE" stroke-width="1.5" stroke-miterlimit="10" stroke-linecap="round" stroke-linejoin="round"/>
</svg>
