<svg width="45" height="45" viewBox="0 0 45 45" fill="none" xmlns="http://www.w3.org/2000/svg">
<circle cx="22.5" cy="22.9353" r="22" fill="#BF9E24"/>
<path d="M28.9698 27.7653L29.3598 30.9253C29.4598 31.7553 28.5698 32.3353 27.8598 31.9053L23.6698 29.4153C23.2098 29.4153 22.7599 29.3853 22.3199 29.3253C23.0599 28.4553 23.4998 27.3553 23.4998 26.1653C23.4998 23.3253 21.0398 21.0253 17.9998 21.0253C16.8398 21.0253 15.7699 21.3553 14.8799 21.9353C14.8499 21.6853 14.8398 21.4353 14.8398 21.1753C14.8398 16.6253 18.7898 12.9353 23.6698 12.9353C28.5498 12.9353 32.4998 16.6253 32.4998 21.1753C32.4998 23.8753 31.1098 26.2653 28.9698 27.7653Z" stroke="#F0F6FE" stroke-width="1.5" stroke-linecap="round" stroke-linejoin="round"/>
<path d="M23.5 26.1653C23.5 27.3553 23.06 28.4554 22.32 29.3254C21.33 30.5254 19.76 31.2953 18 31.2953L15.39 32.8453C14.95 33.1153 14.39 32.7454 14.45 32.2354L14.7 30.2654C13.36 29.3354 12.5 27.8453 12.5 26.1653C12.5 24.4053 13.44 22.8554 14.88 21.9354C15.77 21.3554 16.84 21.0254 18 21.0254C21.04 21.0254 23.5 23.3253 23.5 26.1653Z" stroke="#F0F6FE" stroke-width="1.5" stroke-linecap="round" stroke-linejoin="round"/>
</svg>
