<svg width="45" height="45" viewBox="0 0 45 45" fill="none" xmlns="http://www.w3.org/2000/svg">
<circle cx="22.5" cy="22.9353" r="22" fill="#0C8AD1"/>
<path d="M25.889 16.1453L27.299 18.9653C27.489 19.3553 27.999 19.7253 28.429 19.8053L30.979 20.2253C32.609 20.4953 32.989 21.6753 31.819 22.8553L29.829 24.8453C29.499 25.1753 29.309 25.8253 29.419 26.2953L29.989 28.7553C30.439 30.6953 29.399 31.4553 27.689 30.4353L25.299 29.0153C24.869 28.7553 24.149 28.7553 23.719 29.0153L21.329 30.4353C19.619 31.4453 18.579 30.6953 19.029 28.7553L19.599 26.2953C19.709 25.8353 19.519 25.1853 19.189 24.8453L17.199 22.8553C16.029 21.6853 16.409 20.5053 18.039 20.2253L20.589 19.8053C21.019 19.7353 21.529 19.3553 21.719 18.9653L23.129 16.1453C23.879 14.6153 25.119 14.6153 25.889 16.1453Z" stroke="#F0F6FE" stroke-width="1.5" stroke-linecap="round" stroke-linejoin="round"/>
<path d="M18.5 15.9353H12.5" stroke="#F0F6FE" stroke-width="1.5" stroke-linecap="round" stroke-linejoin="round"/>
<path d="M15.5 29.9353H12.5" stroke="#F0F6FE" stroke-width="1.5" stroke-linecap="round" stroke-linejoin="round"/>
<path d="M13.5 22.9353H12.5" stroke="#F0F6FE" stroke-width="1.5" stroke-linecap="round" stroke-linejoin="round"/>
</svg>
